Coordinates
version=1
nRows=9
nColumns=48
inDegrees=yes

Units are S.I. units (second, meters, Newtons, ...)
Angles are in degrees.

endheader
time	pelvis_tilt	pelvis_list	pelvis_rotation	pelvis_tx	pelvis_ty	pelvis_tz	hip_flexion_r	hip_adduction_r	hip_rotation_r	knee_angle_r	knee_adduction_r	knee_rotation_r	knee_anterior_posterior_r	knee_inferior_superior_r	knee_medial_lateral_r	ankle_angle_r	subtalar_angle_r	mtp_angle_r	hip_flexion_l	hip_adduction_l	hip_rotation_l	knee_angle_l	knee_adduction_l	knee_rotation_l	knee_anterior_posterior_l	knee_inferior_superior_l	knee_medial_lateral_l	ankle_angle_l	subtalar_angle_l	mtp_angle_l	lumbar_extension	lumbar_bending	lumbar_rotation	arm_flex_r	arm_add_r	arm_rot_r	elbow_flex_r	pro_sup_r	wrist_flex_r	wrist_dev_r	arm_flex_l	arm_add_l	arm_rot_l	elbow_flex_l	pro_sup_l	wrist_flex_l	wrist_dev_l
      1.34000000	     -3.69822966	      0.72238467	      4.57853425	     -1.13148288	      1.00812622	      0.23296051	      7.04542390	      1.42962694	    -11.88907822	    -13.04410030	      0.98440452	      4.11446608	      0.00426240	     -0.40000000	      0.00000000	     -5.77054198	      0.00000000	      0.00000000	     38.03447132	     -4.04902474	      0.77831439	    -96.19390251	      0.98440452	      4.11446608	      0.00000000	     -0.40000000	      0.00000000	     -5.42976394	      0.00000000	      0.00000000	    -21.46479317	      2.87368005	      2.72504423	     -5.04127133	    -21.71097935	     20.18904642	     44.21186413	     77.45711068	      0.00000000	      0.00000000	     -9.17734038	    -15.73870509	     13.18113965	     45.55789891	     81.59821770	      0.00000000	      0.00000000
      1.35000000	     -3.75174488	      0.80676835	      4.69222209	     -1.13100670	      1.00788605	      0.23318776	      7.11756562	      1.33813480	    -11.89870644	    -13.15775209	      0.98440452	      4.11446608	      0.00427026	     -0.40000000	      0.00000000	     -5.63144336	      0.00000000	      0.00000000	     38.03492072	     -3.93184859	      0.70559334	    -96.36020529	      0.98440452	      4.11446608	      0.00000000	     -0.40000000	      0.00000000	     -5.63418659	      0.00000000	      0.00000000	    -21.42792040	      2.81261012	      2.59629341	     -5.22337448	    -21.63249934	     19.86259354	     44.43270092	     78.32573119	      0.00000000	      0.00000000	     -9.44398531	    -15.63526663	     12.32493155	     46.00634051	     83.60694465	      0.00000000	      0.00000000
      1.36000000	     -3.78066734	      0.77883982	      4.82642001	     -1.13045805	      1.00775926	      0.23347052	      7.14463494	      1.37951883	    -11.97968469	    -13.21989584	      0.98440452	      4.11446608	      0.00426929	     -0.40000000	      0.00000000	     -5.58436719	      0.00000000	      0.00000000	     38.01921750	     -3.93116358	      0.72494694	    -96.50263123	      0.98440452	      4.11446608	      0.00000000	     -0.40000000	      0.00000000	     -5.56834251	      0.00000000	      0.00000000	    -21.40304088	      2.85555350	      2.54200510	     -5.15805499	    -21.54154406	     20.09187202	     44.22860217	     77.64940030	      0.00000000	      0.00000000	     -9.33123545	    -15.72193980	     12.73553338	     46.01938637	     82.20504355	      0.00000000	      0.00000000
      1.37000000	     -3.81628094	      0.77013200	      4.96795015	     -1.12998677	      1.00757339	      0.23374729	      7.21585069	      1.39283168	    -12.03334339	    -13.37428188	      0.98440452	      4.11446608	      0.00444083	     -0.40000000	      0.00000000	     -5.52661866	      0.00000000	      0.00000000	     38.02737818	     -3.90704413	      0.72214314	    -96.66985774	      0.98440452	      4.11446608	      0.00000000	     -0.40000000	      0.00000000	     -5.56505180	      0.00000000	      0.00000000	    -21.37538489	      2.87014402	      2.57124081	     -5.19768234	    -21.51666702	     20.33530407	     44.12847588	     77.49103257	      0.00000000	      0.00000000	     -9.22533524	    -15.86600938	     13.11279403	     46.16183093	     81.78125859	      0.00000000	      0.00000000
      1.38000000	     -3.84391433	      0.83042466	      5.15586572	     -1.12949744	      1.00742677	      0.23385381	      7.24251235	      1.32155158	    -12.10412288	    -13.45438062	      0.98440452	      4.11446608	      0.00433685	     -0.40000000	      0.00000000	     -5.39183337	      0.00000000	      0.00000000	     38.00747440	     -3.75171534	      0.75575581	    -96.80932653	      0.98440452	      4.11446608	      0.00000000	     -0.40000000	      0.00000000	     -5.55251081	      0.00000000	      0.00000000	    -21.38032561	      2.82541556	      2.57449768	     -5.45488651	    -21.52588444	     20.23889234	     44.32069798	     78.06753069	      0.00000000	      0.00000000	     -9.18645040	    -15.91912206	     13.06422621	     46.39645989	     82.77196286	      0.00000000	      0.00000000
      1.39000000	     -3.87429545	      0.82039905	      5.21516567	     -1.12873536	      1.00736551	      0.23433627	      7.24019026	      1.36662901	    -12.19701593	    -13.52794066	      0.98440452	      4.11446608	      0.00467877	     -0.40000000	      0.00000000	     -5.32524044	      0.00000000	      0.00000000	     37.97799278	     -3.84155127	      0.66062391	    -96.96244447	      0.98440452	      4.11446608	      0.00000000	     -0.40000000	      0.00000000	     -5.46916512	      0.00000000	      0.00000000	    -21.35543608	      2.81149002	      2.67929983	     -5.53254548	    -21.34211583	     20.17612311	     44.13240206	     77.24909623	      0.00000000	      0.00000000	     -9.05714559	    -15.87651900	     13.13924905	     46.37042003	     81.52485941	      0.00000000	      0.00000000
      1.40000000	     -3.93533200	      0.85789572	      5.36861591	     -1.12835364	      1.00710710	      0.23437236	      7.31109985	      1.31515880	    -12.18879423	    -13.62251187	      0.98440452	      4.11446608	      0.00463149	     -0.40000000	      0.00000000	     -5.20069832	      0.00000000	      0.00000000	     38.03514708	     -3.72609195	      0.64109339	    -97.20981831	      0.98440452	      4.11446608	      0.00000000	     -0.40000000	      0.00000000	     -5.34061003	      0.00000000	      0.00000000	    -21.35796228	      2.86183598	      2.55730008	     -5.72912297	    -21.25595203	     19.84413893	     44.39132347	     78.06604305	      0.00000000	      0.00000000	     -9.12891077	    -15.81541130	     12.66965120	     46.56487639	     83.56543192	      0.00000000	      0.00000000
      1.41000000	     -3.99772459	      0.83241747	      5.46603380	     -1.12762380	      1.00706046	      0.23471273	      7.31515052	      1.36013160	    -12.31373348	    -13.61401995	      0.98440452	      4.11446608	      0.00466414	     -0.40000000	      0.00000000	     -5.12735052	      0.00000000	      0.00000000	     38.03758540	     -3.74448065	      0.59744033	    -97.35659467	      0.98440452	      4.11446608	      0.00000000	     -0.40000000	      0.00000000	     -5.38874236	      0.00000000	      0.00000000	    -21.34585331	      2.90979848	      2.50457856	     -5.71949127	    -21.13408094	     20.03131642	     44.26818669	     77.15005577	      0.00000000	      0.00000000	     -9.01815752	    -15.86830616	     13.01695190	     46.62682044	     81.91483253	      0.00000000	      0.00000000
      1.42000000	     -4.12024228	      0.82416366	      5.69532129	     -1.12692633	      1.00695973	      0.23477726	      7.33292627	      1.36830400	    -12.45382514	    -13.50445896	      0.98440452	      4.11446608	      0.00449506	     -0.40000000	      0.00000000	     -5.07315563	      0.00000000	      0.00000000	     38.12736930	     -3.62640092	      0.66059353	    -97.51450090	      0.98440452	      4.11446608	      0.00000000	     -0.40000000	      0.00000000	     -5.45938477	      0.00000000	      0.00000000	    -21.25398806	      2.96724029	      2.43228241	     -5.81001128	    -21.18752537	     20.41693617	     44.21429944	     77.01606574	      0.00000000	      0.00000000	     -8.85802041	    -15.93912687	     13.39432562	     46.54336592	     81.40279478	      0.00000000	      0.00000000
